<svg width="28" height="28" viewBox="0 0 28 28" fill="none" xmlns="http://www.w3.org/2000/svg">
<circle cx="14" cy="14" r="14" fill="#D8D8D8"/>
<path fill-rule="evenodd" clip-rule="evenodd" d="M16.4956 7.84318C16.9046 7.84318 17.3129 7.90087 17.7012 8.03115C20.0935 8.80892 20.9555 11.4339 20.2354 13.7284C19.8271 14.9009 19.1595 15.971 18.2851 16.8453C17.0336 18.0573 15.6601 19.1333 14.1817 20.0601L14.0197 20.158L13.8512 20.0536C12.3675 19.1333 10.9863 18.0573 9.7231 16.8388C8.85458 15.9645 8.18634 14.9009 7.77153 13.7284C7.03912 11.4339 7.90116 8.80892 10.3194 8.01753C10.5074 7.95272 10.7012 7.90735 10.8956 7.88207H10.9734C11.1555 7.8555 11.3363 7.84318 11.5178 7.84318H11.5891C11.9975 7.8555 12.3928 7.92679 12.7759 8.05707H12.8141C12.84 8.06939 12.8595 8.083 12.8725 8.09531C13.0157 8.14133 13.1512 8.19318 13.2808 8.26448L13.5271 8.37466C13.5866 8.4064 13.6534 8.4549 13.7111 8.49682C13.7477 8.52338 13.7806 8.54729 13.8058 8.56263C13.8164 8.56887 13.8271 8.57514 13.838 8.58147C13.8935 8.61391 13.9514 8.6477 14.0002 8.68513C14.7203 8.13485 15.5947 7.8367 16.4956 7.84318ZM18.2197 12.5099C18.4854 12.5027 18.7123 12.2895 18.7317 12.0166V11.9395C18.7512 11.0314 18.2009 10.2089 17.3641 9.89133C17.0984 9.79994 16.8067 9.94318 16.7095 10.2154C16.6188 10.4876 16.7613 10.7858 17.0336 10.8823C17.449 11.0379 17.7271 11.4469 17.7271 11.8999V11.92C17.7148 12.0685 17.7595 12.2117 17.8502 12.3219C17.941 12.4321 18.0771 12.4962 18.2197 12.5099Z" fill="white"/>
</svg>
