<svg width="28" height="28" viewBox="0 0 28 28" fill="none" xmlns="http://www.w3.org/2000/svg">
<rect width="28" height="28" rx="14" fill="#6C5ECF"/>
<path d="M19.504 8.50616C19.2122 8.20668 18.7804 8.09511 18.3777 8.21256L8.98802 10.9431C8.56318 11.0611 8.26205 11.3999 8.18094 11.8303C8.09807 12.2684 8.38752 12.8245 8.76568 13.057L11.7016 14.8615C12.0028 15.0464 12.3914 15.0001 12.6406 14.7487L16.0026 11.3658C16.1718 11.1897 16.4519 11.1897 16.6211 11.3658C16.7904 11.5361 16.7904 11.8121 16.6211 11.9883L13.2533 15.3718C13.0036 15.6225 12.9569 16.013 13.1407 16.316L14.9346 19.2814C15.1447 19.6337 15.5065 19.8333 15.9033 19.8333C15.95 19.8333 16.0026 19.8333 16.0492 19.8275C16.5044 19.7687 16.8662 19.4575 17.0005 19.0171L19.7841 9.63946C19.9067 9.24016 19.7958 8.80563 19.504 8.50616Z" fill="white"/>
</svg>
